<svg id="Layer_1" data-name="Layer 1" xmlns="http://www.w3.org/2000/svg" viewBox="0 0 64 64"><defs><style>.cls-1,.cls-2{fill:#88888c;}.cls-1{stroke:#88888c;stroke-linejoin:round;stroke-width:0.25px;}.cls-3{fill:#ff8d4d;}</style></defs><path class="cls-1" d="M39,51a7,7,0,0,1-14,0Z"/><rect class="cls-2" x="12" y="44" width="40" height="4" rx="2"/><path class="cls-2" d="M49.5,44A3.5,3.5,0,0,1,46,40.5H18A3.5,3.5,0,0,1,14.5,44"/><path class="cls-2" d="M32,12h0A14,14,0,0,1,46,26V41a0,0,0,0,1,0,0H18a0,0,0,0,1,0,0V26A14,14,0,0,1,32,12Z"/><path class="cls-2" d="M32,6h0a6,6,0,0,1,6,6v8a0,0,0,0,1,0,0H26a0,0,0,0,1,0,0V12A6,6,0,0,1,32,6Z"/><circle class="cls-3" cx="45.5" cy="20.5" r="6"/></svg>