<svg id="Layer_1" data-name="Layer 1" xmlns="http://www.w3.org/2000/svg" viewBox="0 0 911.19 164.88"><defs><style>.cls-1,.cls-3{fill:#fff;}.cls-1,.cls-2{stroke:#231f20;stroke-miterlimit:10;}.cls-2{fill:#231f20;}</style></defs><path class="cls-1" d="M891.44,300.05" transform="translate(-50.58 -62.85)"/><path class="cls-2" d="M663.19,261.85" transform="translate(-50.58 -62.85)"/><path class="cls-2" d="M663.19,261.85" transform="translate(-50.58 -62.85)"/><path class="cls-3" d="M443.87,174.86c-54.92-62.64-237.6-88.56-371.33,0" transform="translate(-50.58 -62.85)"/><path d="M448.16,171.09c-2-.05-4.07-.18-6.11-.41-1-.11-2.05-.25-3.08-.41l-1.54-.25-1.61-.22a65.49,65.49,0,0,1-6.5-1.29c-1.06-.29-2.24-.5-3.38-.78s-2.31-.59-3.47-.93c-9.38-2.63-19.82-6.7-32.89-12.61-.81-.37-1.8-.85-2.95-1.44s-2.52-1.18-4-1.92l-5-2.44c-1.83-.87-3.86-1.73-6-2.71s-4.45-2.05-7-3-5.11-2.11-7.89-3.18L348,136.3c-3.07-1.08-6.32-2.05-9.65-3.14a332.22,332.22,0,0,0-45.8-10.54A346.83,346.83,0,0,0,239,118.41a330.64,330.64,0,0,0-55.15,4.51A290.07,290.07,0,0,0,133.62,136q-5.68,2.16-11.05,4.3c-3.54,1.52-6.93,3.12-10.22,4.66-1.64.79-3.27,1.5-4.82,2.34L103,149.77c-2.95,1.66-5.8,3.23-8.44,4.87s-5.06,3.37-7.36,5a73.53,73.53,0,0,0-6.32,4.83,79.58,79.58,0,0,0-9.21,9.06,57,57,0,0,1,7.79-10.19c.85-.9,1.72-1.87,2.69-2.77s2-1.8,3.06-2.72q3.19-2.76,6.93-5.68c1.23-1,2.56-1.9,3.92-2.82s2.76-1.87,4.2-2.82c2.9-1.87,5.91-3.89,9.2-5.64s6.68-3.66,10.23-5.52,7.36-3.43,11.23-5.17a285.21,285.21,0,0,1,53-16.64,344.55,344.55,0,0,1,61.23-7.26A362.1,362.1,0,0,1,308.16,110c10.32,1.41,20.43,3.49,30.25,5.69,2.46.58,4.88,1.24,7.3,1.85s4.82,1.18,7.17,1.93c4.72,1.42,9.4,2.7,13.91,4.32l6.73,2.29,6.53,2.51,3.22,1.23c1.07.42,2.11.9,3.15,1.34l6.18,2.67c2,.87,4,1.9,5.95,2.82l2.91,1.4c1,.46,1.93.92,2.85,1.45l5.52,3c.9.5,1.82.95,2.69,1.48l2.6,1.57A158.21,158.21,0,0,1,448.16,171.09Z" transform="translate(-50.58 -62.85)"/><path d="M105.23,179.79l3.3,1.82,4,2.17,2.52,1.38,1.38.76,1.5.75a323.51,323.51,0,0,0,34.78,15.15A333.18,333.18,0,0,0,204.35,216l7.29,1.37,7.43,1.15c5,.84,10.07,1.32,15.18,2,2.55.32,5.14.47,7.72.71s5.17.51,7.77.61c5.21.28,10.43.62,15.66.67,10.46.3,20.93,0,31.21-.6l7.67-.56c2.54-.18,5.06-.5,7.58-.74,5-.45,9.95-1.24,14.81-1.88,2.42-.37,4.82-.81,7.19-1.2l3.54-.61,3.49-.7,6.86-1.41,6.63-1.61,3.25-.79,3.17-.9,6.2-1.75,5.93-1.92,2.88-.93,2.78-1c14.73-5.33,26.35-11.4,33.94-16.45a101,101,0,0,0,8.58-6.33c1.93-1.6,3.05-2.49,3.16-2.66,2.27-2.15,5.68-2.41,7.6-.61s1.34,5.3-1.3,7.78c-.13.19-1.39,1.15-3.58,2.86a110.85,110.85,0,0,1-9.55,6.66c-8.35,5.23-20.79,11.26-36.22,16.35l-2.91,1-3,.88-6.17,1.81-6.43,1.63-3.29.82-3.36.72-6.85,1.46L342.15,223l-3.59.63-3.63.51c-2.44.34-4.89.72-7.37,1-5,.52-10,1.17-15.15,1.49-2.56.17-5.13.43-7.72.54l-7.81.34c-10.45.31-21.07.32-31.65-.29-5.3-.2-10.58-.69-15.83-1.12-2.63-.17-5.23-.56-7.84-.83s-5.21-.55-7.78-.95c-5.14-.8-10.26-1.43-15.27-2.42l-7.46-1.37L203.74,219a335.61,335.61,0,0,1-51.6-15.74A321.76,321.76,0,0,1,117.7,187l-1.48-.79-1.37-.8L112.38,184l-3.91-2.29Z" transform="translate(-50.58 -62.85)"/><path d="M50.58,131.18l4.09-2.44c2.65-1.6,6.61-3.86,11.69-6.65,2.56-1.36,5.37-2.91,8.5-4.47s6.51-3.26,10.16-5c7.31-3.44,15.66-7.13,24.94-10.77a431.2,431.2,0,0,1,65.2-19.63A473.14,473.14,0,0,1,252.8,72a462.29,462.29,0,0,1,78.61,2.88c25,3.15,48.2,8.36,67.59,14.85s35,14.09,45.48,20.63a129.22,129.22,0,0,1,16.44,11.92,10.23,10.23,0,0,1,3.21,4.89,4,4,0,0,1-.74,4,4.33,4.33,0,0,1-4,.83,10.89,10.89,0,0,1-4.79-2.54,120.79,120.79,0,0,0-15-11.39c-9.72-6.36-24.47-14.09-43.21-20.73s-41.29-12.35-65.85-16A457.44,457.44,0,0,0,253,76.77a471,471,0,0,0-77.21,8.39,428.66,428.66,0,0,0-65.28,18.08c-9.32,3.41-17.73,6.9-25.11,10.17-3.67,1.66-7.11,3.23-10.24,4.77s-6,3-8.58,4.28c-5.14,2.66-9.15,4.83-11.84,6.38Z" transform="translate(-50.58 -62.85)"/><ellipse class="cls-2" cx="250.36" cy="107.69" rx="49.14" ry="44.28"/><path class="cls-1" d="M264.69,181.32l10.69-5.78a5.87,5.87,0,0,1,6.82,1l.08.08a5.09,5.09,0,0,1,.6,7.11c-4.13,4.91-5,5.28-7.57,9a5.7,5.7,0,0,1-7.94,1.34,19.59,19.59,0,0,1-4.75-5.62A5.09,5.09,0,0,1,264.69,181.32Z" transform="translate(-50.58 -62.85)"/><path class="cls-1" d="M92.7,143.23" transform="translate(-50.58 -62.85)"/><circle class="cls-1" cx="250.36" cy="107.69" r="13.68"/><path class="cls-1" d="M279.48,194.18l5-4.23a3.12,3.12,0,0,1,3.71-.2l.05,0a2.83,2.83,0,0,1,1.08,3.76,57.18,57.18,0,0,0-3,5.64,3,3,0,0,1-4.05,1.56,10.68,10.68,0,0,1-3.11-2.52A2.8,2.8,0,0,1,279.48,194.18Z" transform="translate(-50.58 -62.85)"/><path d="M85.33,79.37l-.62,1.33a14.73,14.73,0,0,0-.64,1.55l-.36,1-.32,1.09a16.46,16.46,0,0,0-.67,5.23A11.76,11.76,0,0,0,84.38,95c2.07,3.32,5.67,5.36,8.45,6.47a28.53,28.53,0,0,0,3.48,1.16c.86.23,1.36.32,1.4.34.29.08.21,1.25-.12,2.63s-.94,2.42-1.31,2.32c0,0-.65-.23-1.61-.64a32.54,32.54,0,0,1-3.79-1.93,25.66,25.66,0,0,1-4.79-3.58,17.28,17.28,0,0,1-4-5.61,14,14,0,0,1-1-6.69A17.72,17.72,0,0,1,82.63,84l.5-1.06.51-.92a15.22,15.22,0,0,1,.87-1.46Z" transform="translate(-50.58 -62.85)"/><path d="M103.87,69.66l-.54,1.44a16.37,16.37,0,0,0-.55,1.67l-.32,1L102.19,75c-.78,3.18-1,7.75.79,11.45s5.12,6.26,7.83,7.64a25.53,25.53,0,0,0,3.46,1.43c.86.28,1.36.4,1.4.41.28.1.09,1.41-.34,3s-1.18,2.69-1.57,2.55c-.05,0-.69-.28-1.68-.79a29.07,29.07,0,0,1-3.87-2.39,24,24,0,0,1-4.62-4.38,19.72,19.72,0,0,1-2-3,17.54,17.54,0,0,1-1.37-3.43,17.21,17.21,0,0,1-.46-7,22.09,22.09,0,0,1,1.55-5.7l.46-1.13.49-1c.29-.62.57-1.15.82-1.57Z" transform="translate(-50.58 -62.85)"/><path d="M121.1,62.85l-.54,1.44c-.18.46-.36,1-.55,1.67l-.31,1-.27,1.16c-.78,3.18-1,7.75.8,11.44s5.12,6.25,7.84,7.62a24.71,24.71,0,0,0,3.45,1.42c.86.28,1.36.39,1.39.41.28.1.09,1.42-.35,3s-1.19,2.73-1.59,2.6c-.05,0-.69-.28-1.68-.8a29.07,29.07,0,0,1-3.87-2.39A24.13,24.13,0,0,1,120.8,87a20.28,20.28,0,0,1-2-3,17.59,17.59,0,0,1-1.36-3.44,17.26,17.26,0,0,1-.46-7,22.37,22.37,0,0,1,1.56-5.7l.47-1.13.48-1c.3-.62.58-1.15.83-1.57Z" transform="translate(-50.58 -62.85)"/><path class="cls-3" d="M568.48,174.86c54.93-62.64,237.6-88.56,371.33,0" transform="translate(-50.58 -62.85)"/><path d="M572.78,178.63a33,33,0,0,1-.21-5.77c.06-1,.15-2,.3-3.1.07-.53.15-1.07.25-1.61s.25-1,.4-1.57a47.74,47.74,0,0,1,2.36-6.58,28.85,28.85,0,0,1,1.76-3.34c.66-1.1,1.37-2.23,2.14-3.36,6.21-9,16.78-17.87,31.81-24.38,7.47-3.26,29.47-10.19,59-13a364.88,364.88,0,0,1,48.76-1.53,418.28,418.28,0,0,1,53.87,5.37,446.77,446.77,0,0,1,53.19,12.19c17,5,33.05,10.83,47.47,16.66q5.39,2.28,10.53,4.38l9.86,4.37c1.59.71,3.19,1.33,4.71,2.06l4.5,2.1c2.95,1.38,5.83,2.6,8.56,3.84s5.3,2.49,7.8,3.58,4.92,2,7.11,3a80.74,80.74,0,0,0,12,4.26,60.47,60.47,0,0,1-12.35-2.47l-7.31-2.23q-3.85-1.22-8-2.78c-1.37-.54-2.82-1-4.3-1.52s-3-1-4.49-1.59c-3.05-1.1-6.14-2.39-9.46-3.49s-6.68-2.39-10.15-3.71S875.67,156,872,154.68c-14.91-5-31.55-10.09-49.48-14.29a445.21,445.21,0,0,0-56.79-9.58,383.64,383.64,0,0,0-59.57-1.48c-9.86.44-19.57,1.53-29.07,2.77-2.37.34-4.71.76-7,1.14s-4.67.7-7,1.22c-4.57,1-9.13,1.78-13.51,3L643,139.08,636.63,141l-3.14.93c-1,.33-2,.71-3.06,1l-6,2.12c-2,.69-3.87,1.55-5.78,2.3l-2.83,1.17c-.94.38-1.87.76-2.76,1.21l-5.32,2.54c-.87.43-1.76.81-2.6,1.28l-2.48,1.37C589.44,162.13,579.14,170.55,572.78,178.63Z" transform="translate(-50.58 -62.85)"/><path d="M907.12,179.79l-3.24,1.91L900,184l-2.47,1.45-1.37.8-1.48.79a321.76,321.76,0,0,1-34.44,16.18A335.81,335.81,0,0,1,808.62,219l-7.32,1.59-7.46,1.37c-5,1-10.13,1.62-15.27,2.42-2.57.4-5.18.62-7.78.95s-5.21.66-7.84.83c-5.25.43-10.53.92-15.82,1.12-10.59.61-21.21.6-31.66.29l-7.81-.34c-2.59-.11-5.16-.37-7.72-.54-5.13-.32-10.17-1-15.15-1.49-2.48-.3-4.93-.68-7.37-1l-3.63-.51L670.2,223l-7.05-1.24-6.85-1.46-3.36-.72-3.29-.82-6.43-1.63-6.17-1.81-3-.88-2.91-1c-15.43-5.09-27.87-11.12-36.22-16.35a110.85,110.85,0,0,1-9.55-6.66c-2.19-1.71-3.44-2.67-3.58-2.86-2.64-2.48-3.21-6-1.3-7.78s5.33-1.54,7.6.61c.11.17,1.23,1.06,3.16,2.66a102.62,102.62,0,0,0,8.58,6.33c7.59,5.05,19.21,11.12,33.94,16.45l2.78,1,2.88.93,5.93,1.92,6.2,1.75,3.17.9,3.25.79,6.64,1.61,6.85,1.41,3.49.7,3.54.61c2.38.39,4.77.83,7.19,1.2,4.86.64,9.79,1.43,14.82,1.88,2.51.24,5,.56,7.57.74l7.67.56c10.28.59,20.75.9,31.21.6,5.23-.05,10.45-.39,15.66-.67,2.6-.1,5.19-.41,7.77-.61s5.17-.39,7.72-.71c5.11-.65,10.2-1.13,15.18-2l7.44-1.15L808,216a333.18,333.18,0,0,0,51.68-14.17,323.51,323.51,0,0,0,34.78-15.15l1.5-.75,1.38-.76,2.52-1.38,4-2.17Z" transform="translate(-50.58 -62.85)"/><path d="M961.77,131.18l-4.14-2.34c-2.69-1.55-6.7-3.72-11.84-6.38-2.58-1.31-5.42-2.8-8.58-4.28s-6.57-3.11-10.24-4.77c-7.37-3.27-15.78-6.76-25.1-10.17a429.13,429.13,0,0,0-65.29-18.08,471,471,0,0,0-77.21-8.39,457.44,457.44,0,0,0-77.55,4.58c-24.56,3.65-47.16,9.28-65.85,16s-33.49,14.37-43.21,20.73a120.79,120.79,0,0,0-15,11.39,10.89,10.89,0,0,1-4.79,2.54,4.33,4.33,0,0,1-4-.83,4,4,0,0,1-.74-4,10.23,10.23,0,0,1,3.21-4.89,129.22,129.22,0,0,1,16.44-11.92c10.47-6.54,26-14.23,45.48-20.63S655.91,78,680.94,74.89A462.29,462.29,0,0,1,759.55,72a473.14,473.14,0,0,1,77.64,10.2,431.2,431.2,0,0,1,65.2,19.63c9.28,3.64,17.63,7.33,25,10.77,3.64,1.75,7,3.39,10.15,5s5.94,3.11,8.5,4.47c5.08,2.79,9,5,11.69,6.65Z" transform="translate(-50.58 -62.85)"/><path class="cls-1" d="M919.65,143.23" transform="translate(-50.58 -62.85)"/><path d="M927,79.37l.82,1.22a15.22,15.22,0,0,1,.87,1.46c.16.29.33.6.52.92s.32.69.49,1.06a17.72,17.72,0,0,1,1.54,5.46,14,14,0,0,1-1,6.69,17.13,17.13,0,0,1-4,5.61,25.94,25.94,0,0,1-4.78,3.58,33.35,33.35,0,0,1-3.8,1.93c-1,.41-1.56.62-1.61.64-.37.1-1-.93-1.31-2.32s-.41-2.55-.12-2.63c0,0,.54-.11,1.4-.34a28.53,28.53,0,0,0,3.48-1.16c2.78-1.11,6.38-3.15,8.45-6.47a11.76,11.76,0,0,0,1.66-5.48,16.46,16.46,0,0,0-.67-5.23l-.32-1.09c-.12-.34-.24-.67-.36-1a14.73,14.73,0,0,0-.64-1.55Z" transform="translate(-50.58 -62.85)"/><path d="M908.48,69.66l.77,1.34c.25.42.53,1,.82,1.57l.49,1,.47,1.13a22.52,22.52,0,0,1,1.54,5.7,17.21,17.21,0,0,1-.46,7,18.15,18.15,0,0,1-1.36,3.43,19.77,19.77,0,0,1-2,3,24,24,0,0,1-4.62,4.38,29.07,29.07,0,0,1-3.87,2.39c-1,.51-1.63.77-1.68.79-.39.14-1.14-1-1.57-2.55s-.62-2.85-.34-3c0,0,.54-.13,1.4-.41a25.53,25.53,0,0,0,3.46-1.43c2.72-1.38,6.15-3.88,7.83-7.64s1.57-8.27.79-11.45l-.27-1.16-.32-1A16.37,16.37,0,0,0,909,71.1C908.68,70.18,908.48,69.66,908.48,69.66Z" transform="translate(-50.58 -62.85)"/><path d="M891.25,62.85l.77,1.34c.26.42.53,1,.83,1.57l.48,1c.15.36.31.73.47,1.13a22.37,22.37,0,0,1,1.56,5.7,17.26,17.26,0,0,1-.46,7A17,17,0,0,1,893.54,84a20.28,20.28,0,0,1-2,3,24.13,24.13,0,0,1-4.62,4.4,29.07,29.07,0,0,1-3.87,2.39c-1,.52-1.63.78-1.68.8-.4.13-1.15-1-1.59-2.6s-.63-2.89-.35-3c0,0,.53-.13,1.4-.41a25.74,25.74,0,0,0,3.45-1.42c2.71-1.37,6.14-3.86,7.83-7.62s1.58-8.26.8-11.44c-.09-.4-.18-.79-.27-1.16l-.31-1c-.19-.65-.37-1.21-.55-1.67Z" transform="translate(-50.58 -62.85)"/><ellipse class="cls-2" cx="660.83" cy="111.69" rx="49.14" ry="44.28"/><path class="cls-1" d="M675.17,185.32l10.68-5.78a5.88,5.88,0,0,1,6.83,1l.08.08a5.1,5.1,0,0,1,.6,7.11c-4.13,4.91-5,5.28-7.57,9a5.7,5.7,0,0,1-7.94,1.34,19.59,19.59,0,0,1-4.75-5.62A5.08,5.08,0,0,1,675.17,185.32Z" transform="translate(-50.58 -62.85)"/><path class="cls-1" d="M690,198.18l5-4.23a3.12,3.12,0,0,1,3.71-.2l0,0a2.83,2.83,0,0,1,1.08,3.76,59.87,59.87,0,0,0-3,5.64,3,3,0,0,1-4,1.56,10.68,10.68,0,0,1-3.11-2.52A2.79,2.79,0,0,1,690,198.18Z" transform="translate(-50.58 -62.85)"/><circle class="cls-1" cx="660.83" cy="111.69" r="13.68"/></svg>