<svg id="Layer_1" data-name="Layer 1" xmlns="http://www.w3.org/2000/svg" xmlns:xlink="http://www.w3.org/1999/xlink" viewBox="0 0 595.28 404.64"><defs><style>.cls-1,.cls-10,.cls-11,.cls-12,.cls-13,.cls-14,.cls-15,.cls-2,.cls-3,.cls-4,.cls-5,.cls-6,.cls-7,.cls-8,.cls-9{stroke-miterlimit:10;}.cls-1{fill:url(#radial-gradient);stroke:url(#radial-gradient-2);}.cls-2{fill:url(#radial-gradient-3);stroke:url(#radial-gradient-4);}.cls-3{fill:url(#radial-gradient-5);stroke:url(#radial-gradient-6);}.cls-4{fill:url(#radial-gradient-9);stroke:url(#radial-gradient-10);}.cls-5{fill:url(#radial-gradient-11);stroke:url(#radial-gradient-12);}.cls-6{fill:url(#radial-gradient-13);stroke:url(#radial-gradient-14);}.cls-7{fill:url(#radial-gradient-15);stroke:url(#radial-gradient-16);}.cls-8{fill:url(#radial-gradient-17);stroke:url(#radial-gradient-18);}.cls-9{fill:url(#radial-gradient-19);stroke:url(#radial-gradient-20);}.cls-10{fill:url(#radial-gradient-21);stroke:url(#radial-gradient-22);}.cls-11{fill:url(#radial-gradient-23);stroke:url(#radial-gradient-24);}.cls-12{fill:url(#radial-gradient-25);stroke:url(#radial-gradient-26);}.cls-13{fill:url(#radial-gradient-29);stroke:url(#radial-gradient-30);}.cls-14{fill:url(#radial-gradient-31);stroke:url(#radial-gradient-32);}.cls-15{fill:url(#radial-gradient-33);stroke:url(#radial-gradient-34);}</style><radialGradient id="radial-gradient" cx="292.17" cy="207.51" r="197.43" gradientTransform="translate(505.4 -89.85) rotate(90)" gradientUnits="userSpaceOnUse"><stop offset="0" stop-color="#32c5f4"/><stop offset="1" stop-color="#2b3990"/></radialGradient><radialGradient id="radial-gradient-2" cx="292.17" cy="207.51" r="197.91" xlink:href="#radial-gradient"/><radialGradient id="radial-gradient-3" cx="205.28" cy="196.38" r="1.78" xlink:href="#radial-gradient"/><radialGradient id="radial-gradient-4" cx="205.11" cy="196.1" r="2.85" xlink:href="#radial-gradient"/><radialGradient id="radial-gradient-5" cx="292.17" cy="247.22" r="2.88" xlink:href="#radial-gradient"/><radialGradient id="radial-gradient-6" cx="292.16" cy="247.22" r="2.93" xlink:href="#radial-gradient"/><radialGradient id="radial-gradient-9" cx="272.54" cy="67.19" r="111.24" xlink:href="#radial-gradient"/><radialGradient id="radial-gradient-10" cx="272.54" cy="67.19" r="111.74" xlink:href="#radial-gradient"/><radialGradient id="radial-gradient-11" cx="292.19" cy="247.2" r="7.42" xlink:href="#radial-gradient"/><radialGradient id="radial-gradient-12" cx="292.19" cy="247.2" r="7.47" xlink:href="#radial-gradient"/><radialGradient id="radial-gradient-13" cx="151.71" cy="105.81" r="4.43" xlink:href="#radial-gradient"/><radialGradient id="radial-gradient-14" cx="151.7" cy="105.8" r="4.48" xlink:href="#radial-gradient"/><radialGradient id="radial-gradient-15" cx="239.69" cy="121.17" r="63.47" xlink:href="#radial-gradient"/><radialGradient id="radial-gradient-16" cx="239.46" cy="121.22" r="63.89" xlink:href="#radial-gradient"/><radialGradient id="radial-gradient-17" cx="252.61" cy="106.56" r="101.04" xlink:href="#radial-gradient"/><radialGradient id="radial-gradient-18" cx="252.6" cy="106.66" r="101.59" xlink:href="#radial-gradient"/><radialGradient id="radial-gradient-19" cx="292.17" cy="168.16" r="3.32" xlink:href="#radial-gradient"/><radialGradient id="radial-gradient-20" cx="292.17" cy="168.16" r="3.37" xlink:href="#radial-gradient"/><radialGradient id="radial-gradient-21" cx="311.87" cy="348.32" r="111.22" xlink:href="#radial-gradient"/><radialGradient id="radial-gradient-22" cx="311.87" cy="348.32" r="111.72" xlink:href="#radial-gradient"/><radialGradient id="radial-gradient-23" cx="378.99" cy="218.52" r="1.22" xlink:href="#radial-gradient"/><radialGradient id="radial-gradient-24" cx="379.17" cy="218.8" r="2.29" xlink:href="#radial-gradient"/><radialGradient id="radial-gradient-25" cx="292.17" cy="168.16" r="3.04" xlink:href="#radial-gradient"/><radialGradient id="radial-gradient-26" cx="292.18" cy="168.16" r="3.09" xlink:href="#radial-gradient"/><radialGradient id="radial-gradient-29" cx="331.78" cy="308.5" r="100.86" xlink:href="#radial-gradient"/><radialGradient id="radial-gradient-30" cx="331.78" cy="308.4" r="101.41" xlink:href="#radial-gradient"/><radialGradient id="radial-gradient-31" cx="343.46" cy="294.19" r="64.14" xlink:href="#radial-gradient"/><radialGradient id="radial-gradient-32" cx="343.7" cy="294.14" r="64.57" xlink:href="#radial-gradient"/><radialGradient id="radial-gradient-33" cx="432.64" cy="307.64" r="4.43" xlink:href="#radial-gradient"/><radialGradient id="radial-gradient-34" cx="432.64" cy="307.63" r="4.47" xlink:href="#radial-gradient"/></defs><path class="cls-1" d="M398.63,342.87a140.17,140.17,0,0,1-100.94-42.73q-5.1-5.28-9.65-11.05l-1-1.24a139.73,139.73,0,0,1-28.62-75q-.24-3.21-.33-6.43h0c.1-1.35.14-2.72.14-4.09s0-2.71-.14-4.06c0,0,0,0,0,0q.09-3.21.33-6.37c-.18,1.75-.32,3.5-.41,5.29,0-.54-.09-1.09-.16-1.62v-.09a100.37,100.37,0,0,0-12.54-42.32,101,101,0,0,0-188.72,38.7,140.59,140.59,0,0,1,250.69-76.32l1.39,1.8a139.87,139.87,0,0,1,28.53,80.33c0,.13,0,.28,0,.41-.05.89-.07,1.81-.08,2.71,0,.54,0,1.06,0,1.6s0,1.06,0,1.58c0,.91,0,1.81.07,2.69,0,.13,0,.28,0,.41a100.34,100.34,0,0,0,12.29,43.84A101,101,0,0,0,539.14,205,140.53,140.53,0,0,1,398.63,342.87Z"/><path class="cls-2" d="M308.72,117.29l-1.39-1.8c1.11-.66,2.24-1.32,3.38-1.94C310,114.79,309.35,116,308.72,117.29Z"/><path class="cls-3" d="M258.14,206.39c0-.56,0-1.11,0-1.67,0-.8,0-1.6,0-2.38s0-1.61,0-2.41c0-.56,0-1.13,0-1.69.1,1.35.14,2.69.14,4.06S258.24,205,258.14,206.39Z"/><path class="cls-2" d="M308.72,117.29l-1.39-1.8c1.11-.66,2.24-1.32,3.38-1.94C310,114.79,309.35,116,308.72,117.29Z"/><path class="cls-4" d="M438.15,303.35A101,101,0,0,1,337.25,207c0-.24,0-.49,0-.73a61.47,61.47,0,0,0,56.86,57.36c1.48.12,3,.16,4.5.16,1.18,0,2.35,0,3.51-.09A101,101,0,0,0,406.82,62,140.52,140.52,0,0,1,539.14,199.73q0,1.31,0,2.61t0,2.61A101,101,0,0,1,438.15,303.35Z"/><path class="cls-5" d="M258.47,212.83c-.18-1.75-.32-3.52-.41-5.29v-.06l0-.74c-.07-1.45-.1-2.93-.1-4.4s0-3,.1-4.44l0-.76c.09-1.79.23-3.54.41-5.29q-.24,3.17-.33,6.37s0,0,0,0c.1,1.35.14,2.69.14,4.06s0,2.74-.14,4.09h0Q258.23,209.63,258.47,212.83Z"/><path class="cls-6" d="M398.63,61.79c-1.78,0-3.55,0-5.31.11,1.86-.11,3.74-.17,5.63-.17,2.32,0,4.63.08,6.91.25C403.47,61.85,401.05,61.79,398.63,61.79Z"/><path class="cls-7" d="M337.27,198.36c0-.25,0-.49,0-.74a139.87,139.87,0,0,0-28.53-80.33c.63-1.25,1.29-2.5,2-3.74a101,101,0,0,1,149,81.92,61.49,61.49,0,0,0-122.46,2.89Z"/><path class="cls-8" d="M402.14,263.72a61.49,61.49,0,0,0,57.59-54.51,62.29,62.29,0,0,0,0-13.74,101,101,0,0,0-149-81.92c-1.14.62-2.27,1.28-3.38,1.94a141.52,141.52,0,0,0-9.61-11A140.15,140.15,0,0,1,393.2,61.9h.12c1.76-.07,3.53-.11,5.31-.11,2.42,0,4.84.06,7.23.19.32,0,.64,0,1,.06a101,101,0,0,1-4.68,201.68Z"/><path class="cls-9" d="M337.25,207c0-.13,0-.28,0-.41,0-.88-.06-1.78-.07-2.69,0-.52,0-1.06,0-1.58s0-1.06,0-1.6c0-.9,0-1.82.08-2.71,0-.13,0-.28,0-.41,0,.25,0,.49,0,.74,0,.44,0,.89,0,1.34,0,.86,0,1.73,0,2.6s0,1.74,0,2.61q0,.69,0,1.38C337.27,206.53,337.26,206.78,337.25,207Z"/><path class="cls-10" d="M191.36,342.74a140.54,140.54,0,0,1-134.72-130q-.39-5.17-.39-10.49t.39-10.49a101,101,0,0,1,201.26,3.62,61.52,61.52,0,0,0-57.09-54.49h-.12c-1.29-.09-2.59-.13-3.9-.13-1.59,0-3.17.06-4.73.18h-.14a101,101,0,0,0-.56,201.74Z"/><path class="cls-11" d="M285.72,290.42c.48-.84.93-1.7,1.37-2.57l1,1.24C287.28,289.54,286.5,290,285.72,290.42Z"/><path class="cls-12" d="M337.23,206.61c0-.88-.06-1.78-.07-2.69,0-.52,0-1.06,0-1.58s0-1.06,0-1.6c0-.9,0-1.82.08-2.71,0,.19,0,.37,0,.56,0,.37,0,.74,0,1.11,0,.86,0,1.73,0,2.6s0,1.74,0,2.61c0,.38,0,.76,0,1.14C337.25,206.24,337.25,206.42,337.23,206.61Z"/><path class="cls-11" d="M285.72,290.42c.48-.84.93-1.7,1.37-2.57l1,1.24C287.28,289.54,286.5,290,285.72,290.42Z"/><path class="cls-13" d="M196.79,342.85c-1.77,0-3.54,0-5.29-.11h-.14A101,101,0,0,1,191.92,141a61.5,61.5,0,0,0-56.59,59.72c0,.52,0,1.06,0,1.58s0,1.06,0,1.6a101,101,0,0,0,150.39,86.52c.78-.43,1.56-.88,2.32-1.33q4.54,5.76,9.65,11.05A140,140,0,0,1,205,342.6c-.32,0-.65.06-1,.06Q200.44,342.86,196.79,342.85Z"/><path class="cls-14" d="M236.32,303.31a100.92,100.92,0,0,1-101-99.41,61.49,61.49,0,0,0,122.57,5.27v-.07c.07-.52.12-1,.16-1.56.09,1.77.23,3.54.41,5.29a139.73,139.73,0,0,0,28.62,75c-.44.87-.89,1.73-1.37,2.57A100.39,100.39,0,0,1,236.32,303.31Z"/><path class="cls-15" d="M191.5,342.74c1.75.07,3.52.11,5.29.11q3.65,0,7.23-.19-3.42.25-6.9.25C195.23,342.91,193.36,342.85,191.5,342.74Z"/></svg>